<svg width="423" height="178" viewBox="0 0 423 178" fill="none" xmlns="http://www.w3.org/2000/svg">
<g filter="url(#filter0_d_5_6)">
<path d="M50.9 65C50.5733 65.14 49.6633 65.3267 48.17 65.56C46.7233 65.84 45.3467 65.98 44.04 65.98C42.78 65.98 42.15 65.63 42.15 64.93C41.5433 62.4567 40.05 53.6133 37.67 38.4C31.23 52.7267 27.4033 61.5933 26.19 65C25.8633 65.14 24.9533 65.3267 23.46 65.56C21.9667 65.84 20.59 65.98 19.33 65.98C18.07 65.98 17.44 65.63 17.44 64.93C16.74 61.99 15.76 56.32 14.5 47.92C13.24 39.52 11.9333 31.89 10.58 25.03C9.22667 18.17 7.82667 13.62 6.38 11.38C8.94667 10.1667 11.0467 9.56 12.68 9.56C14.36 9.56 15.5733 9.86333 16.32 10.47C17.0667 11.0767 17.7433 12.4067 18.35 14.46C19.0033 16.4667 19.5867 19.29 20.1 22.93C20.6133 26.5233 21.0567 29.93 21.43 33.15C21.85 36.3233 22.06 37.9333 22.06 37.98C22.06 38.0267 22.0833 38.26 22.13 38.68C22.1767 39.0533 22.5267 41.5967 23.18 46.31C23.88 50.9767 24.3233 53.9867 24.51 55.34C28.1033 47.64 31.8133 38.12 35.64 26.78C34.1467 19.0333 32.63 13.9 31.09 11.38C33.6567 10.1667 35.7567 9.56 37.39 9.56C39.07 9.56 40.2833 9.86333 41.03 10.47C41.7767 11.0767 42.4533 12.4067 43.06 14.46C43.7133 16.4667 44.2967 19.29 44.81 22.93C45.3233 26.5233 45.7667 29.93 46.14 33.15C46.56 36.3233 46.77 37.9333 46.77 37.98C46.77 38.0267 46.7933 38.26 46.84 38.68C46.8867 39.0533 47.2367 41.5967 47.89 46.31C48.59 50.9767 49.0333 53.9867 49.22 55.34C52.4867 46.8467 55.8 37.6767 59.16 27.83C62.52 17.9833 64.2933 11.5433 64.48 8.51C69.52 9.53666 72.04 11.17 72.04 13.41C72.04 16.4433 67.2333 28.5067 57.62 49.6C53.8867 57.86 51.6467 62.9933 50.9 65ZM93.2079 47.78C90.9679 47.78 88.7746 47.5233 86.6279 47.01C86.5812 47.4767 86.5579 48.2 86.5579 49.18C86.5579 53.0533 87.2812 55.97 88.7279 57.93C90.1746 59.89 91.9012 60.87 93.9079 60.87C95.9146 60.87 97.8279 60.2633 99.6479 59.05C101.468 57.8367 103.055 56.1567 104.408 54.01C106.088 54.3833 106.928 55.2467 106.928 56.6C102.821 62.9 97.5246 66.05 91.0379 66.05C87.1179 66.05 83.6879 64.5567 80.7479 61.57C77.8079 58.5367 76.3379 54.3367 76.3379 48.97C76.3379 44.9567 77.1079 41.1533 78.6479 37.56C80.1879 33.92 82.6379 30.8633 85.9979 28.39C89.3579 25.87 93.0679 24.61 97.1279 24.61C101.235 24.61 104.245 25.5433 106.158 27.41C108.071 29.2767 109.028 31.7267 109.028 34.76C109.028 39.1467 107.488 42.4133 104.408 44.56C101.375 46.7067 97.6412 47.78 93.2079 47.78ZM96.1479 28.95C93.7679 28.95 91.7612 30.42 90.1279 33.36C88.4946 36.3 87.4212 39.87 86.9079 44.07H87.9579C92.0179 44.07 95.0046 43.02 96.9179 40.92C98.8779 38.82 99.8579 36.3 99.8579 33.36C99.8579 32.1467 99.5312 31.12 98.8779 30.28C98.2712 29.3933 97.3612 28.95 96.1479 28.95ZM117.958 63.25C117.398 62.3167 117.048 61.43 116.908 60.59C116.768 59.7033 116.698 58.35 116.698 56.53C116.698 54.71 117.468 47.5467 119.008 35.04C120.594 22.5333 121.388 13.9467 121.388 9.28C121.388 4.61333 121.108 1.58 120.548 0.179996C124.048 1.11333 126.428 2.53666 127.688 4.45C128.994 6.31666 129.648 8.97666 129.648 12.43C129.648 14.4833 128.971 21.1567 127.618 32.45C126.264 43.7433 125.588 52.8433 125.588 59.75C125.588 61.2433 125.681 63.3433 125.868 66.05C121.621 65.8633 118.984 64.93 117.958 63.25ZM146.436 49.18C146.436 56.9733 148.722 60.87 153.296 60.87C155.069 60.87 156.866 60.2633 158.686 59.05C160.506 57.8367 162.092 56.1567 163.446 54.01C165.126 54.3833 165.966 55.2467 165.966 56.6C164.006 60.0067 161.602 62.4333 158.756 63.88C155.909 65.3267 153.062 66.05 150.216 66.05C146.389 66.05 143.122 64.65 140.416 61.85C137.756 59.0033 136.426 54.8967 136.426 49.53C136.426 42.67 138.316 36.8133 142.096 31.96C145.876 27.06 150.986 24.61 157.426 24.61C161.019 24.61 163.726 25.4967 165.546 27.27C167.366 28.9967 168.276 31.0733 168.276 33.5C168.276 35.88 167.529 37.9567 166.036 39.73C164.589 41.5033 162.722 42.39 160.436 42.39C159.316 42.39 158.196 42.1567 157.076 41.69C157.776 40.8967 158.429 39.66 159.036 37.98C159.642 36.2533 159.946 34.6667 159.946 33.22C159.946 30.3733 158.709 28.95 156.236 28.95C153.342 28.95 150.986 31.0733 149.166 35.32C147.346 39.5667 146.436 44.1867 146.436 49.18ZM196.34 29.93C193.307 29.93 190.6 31.9833 188.22 36.09C185.84 40.15 184.65 44.21 184.65 48.27C184.65 56.7633 186.844 61.01 191.23 61.01C194.357 61.01 196.9 58.98 198.86 54.92C200.82 50.8133 201.8 46.2167 201.8 41.13C201.8 33.6633 199.98 29.93 196.34 29.93ZM190.39 23.63C190.904 23.63 191.37 23.7933 191.79 24.12C192.257 24.4 192.49 24.7033 192.49 25.03C187.777 28.2967 184.954 32.8467 184.02 38.68C185 36.0667 186.19 33.8033 187.59 31.89C189.037 29.9767 190.53 28.53 192.07 27.55C195.01 25.73 197.88 24.82 200.68 24.82C203.48 24.82 205.86 26.1967 207.82 28.95C209.78 31.7033 210.76 35.39 210.76 40.01C210.76 45.19 209.71 49.95 207.61 54.29C205.277 59.19 201.964 62.5733 197.67 64.44C195.244 65.5133 192.584 66.05 189.69 66.05C185.63 66.05 182.084 64.4867 179.05 61.36C176.064 58.1867 174.57 53.66 174.57 47.78C174.57 41.8533 176.017 36.65 178.91 32.17C181.804 27.6433 185.63 24.7967 190.39 23.63ZM249.413 57.58C249.413 59.9133 249.553 62.3867 249.833 65C248.34 65.0933 247.36 65.14 246.893 65.14C244.28 65.14 242.39 64.6967 241.223 63.81C240.057 62.8767 239.473 61.5233 239.473 59.75C239.473 57.9767 239.963 54.3367 240.943 48.83C241.97 43.2767 242.483 39.0767 242.483 36.23C242.483 33.3367 241.55 31.89 239.683 31.89C238.657 31.89 237.537 32.52 236.323 33.78C235.11 34.9933 233.967 36.6733 232.893 38.82C231.82 40.92 230.91 43.6267 230.163 46.94C229.463 50.2533 229.113 53.45 229.113 56.53C229.113 59.5633 229.253 62.3867 229.533 65C228.04 65.0933 227.06 65.14 226.593 65.14C223.98 65.14 222.09 64.6967 220.923 63.81C219.757 62.8767 219.173 61.3367 219.173 59.19C219.173 58.6767 219.64 55.2 220.573 48.76C221.553 42.32 222.043 37.2333 222.043 33.5C222.043 29.72 221.647 26.2667 220.853 23.14C224.307 24.2133 226.71 25.7533 228.063 27.76C229.417 29.7667 230.093 32.24 230.093 35.18C230.093 36.6733 229.93 38.5633 229.603 40.85C231.19 36.1833 233.383 32.31 236.183 29.23C239.03 26.15 241.76 24.61 244.373 24.61C247.033 24.61 248.947 25.59 250.113 27.55C251.327 29.51 251.933 32.3333 251.933 36.02C253.707 32.6133 255.737 29.86 258.023 27.76C260.31 25.66 262.41 24.61 264.323 24.61C267.17 24.61 269.177 25.4733 270.343 27.2C271.557 28.88 272.163 31.19 272.163 34.13C272.163 37.0233 271.697 41.1067 270.763 46.38C269.877 51.6533 269.433 55.5033 269.433 57.93C269.433 60.31 269.737 62.06 270.343 63.18C270.95 64.2533 271.977 65.1867 273.423 65.98C272.817 66.0267 271.953 66.05 270.833 66.05C266.913 66.05 264.113 65.4433 262.433 64.23C260.8 63.0167 259.983 60.8933 259.983 57.86C259.983 56.1333 260.45 52.7733 261.383 47.78C262.317 42.74 262.783 38.9833 262.783 36.51C262.783 33.43 261.85 31.89 259.983 31.89C258.583 31.89 257.067 32.9167 255.433 34.97C253.847 36.9767 252.447 40.0333 251.233 44.14C250.02 48.2 249.413 52.68 249.413 57.58ZM297.261 47.78C295.021 47.78 292.827 47.5233 290.681 47.01C290.634 47.4767 290.611 48.2 290.611 49.18C290.611 53.0533 291.334 55.97 292.781 57.93C294.227 59.89 295.954 60.87 297.961 60.87C299.967 60.87 301.881 60.2633 303.701 59.05C305.521 57.8367 307.107 56.1567 308.461 54.01C310.141 54.3833 310.981 55.2467 310.981 56.6C306.874 62.9 301.577 66.05 295.091 66.05C291.171 66.05 287.741 64.5567 284.801 61.57C281.861 58.5367 280.391 54.3367 280.391 48.97C280.391 44.9567 281.161 41.1533 282.701 37.56C284.241 33.92 286.691 30.8633 290.051 28.39C293.411 25.87 297.121 24.61 301.181 24.61C305.287 24.61 308.297 25.5433 310.211 27.41C312.124 29.2767 313.081 31.7267 313.081 34.76C313.081 39.1467 311.541 42.4133 308.461 44.56C305.427 46.7067 301.694 47.78 297.261 47.78ZM300.201 28.95C297.821 28.95 295.814 30.42 294.181 33.36C292.547 36.3 291.474 39.87 290.961 44.07H292.011C296.071 44.07 299.057 43.02 300.971 40.92C302.931 38.82 303.911 36.3 303.911 33.36C303.911 32.1467 303.584 31.12 302.931 30.28C302.324 29.3933 301.414 28.95 300.201 28.95ZM358.486 32.1C358.253 33.78 357.763 36.6967 357.016 40.85C355.429 49.67 354.636 56.2033 354.636 60.45C354.636 64.6967 354.963 67.5433 355.616 68.99C352.023 68.0567 349.549 66.6333 348.196 64.72C346.843 62.76 346.166 60.0067 346.166 56.46C346.166 53.3333 346.656 49.0633 347.636 43.65C348.616 38.19 349.246 34.5033 349.526 32.59C347.099 33.01 344.509 33.8267 341.756 35.04C341.663 34.0133 341.616 33.2433 341.616 32.73C341.616 30.2567 342.363 28.5767 343.856 27.69C345.349 26.7567 347.496 26.2667 350.296 26.22C350.623 22.72 350.786 20.2 350.786 18.66C350.786 17.12 350.763 15.8367 350.716 14.81C350.716 13.7833 350.716 13.0133 350.716 12.5C353.796 12.8267 356.036 13.76 357.436 15.3C358.836 16.7933 359.536 18.94 359.536 21.74C359.536 22.86 359.419 24.4233 359.186 26.43C363.106 26.3367 365.976 25.5667 367.796 24.12C367.889 25.0533 367.936 25.7533 367.936 26.22C367.936 28.46 367.539 30.0233 366.746 30.91C365.953 31.75 364.623 32.17 362.756 32.17C360.889 32.17 359.466 32.1467 358.486 32.1ZM391.438 29.93C388.405 29.93 385.698 31.9833 383.318 36.09C380.938 40.15 379.748 44.21 379.748 48.27C379.748 56.7633 381.941 61.01 386.328 61.01C389.455 61.01 391.998 58.98 393.958 54.92C395.918 50.8133 396.898 46.2167 396.898 41.13C396.898 33.6633 395.078 29.93 391.438 29.93ZM385.488 23.63C386.001 23.63 386.468 23.7933 386.888 24.12C387.355 24.4 387.588 24.7033 387.588 25.03C382.875 28.2967 380.051 32.8467 379.118 38.68C380.098 36.0667 381.288 33.8033 382.688 31.89C384.135 29.9767 385.628 28.53 387.168 27.55C390.108 25.73 392.978 24.82 395.778 24.82C398.578 24.82 400.958 26.1967 402.918 28.95C404.878 31.7033 405.858 35.39 405.858 40.01C405.858 45.19 404.808 49.95 402.708 54.29C400.375 59.19 397.061 62.5733 392.768 64.44C390.341 65.5133 387.681 66.05 384.788 66.05C380.728 66.05 377.181 64.4867 374.148 61.36C371.161 58.1867 369.668 53.66 369.668 47.78C369.668 41.8533 371.115 36.65 374.008 32.17C376.901 27.6433 380.728 24.7967 385.488 23.63ZM23.67 137.72L24.16 140.45C28.4533 133.777 31.93 127.477 34.59 121.55C37.2967 115.623 38.8833 111.003 39.35 107.69C42.85 109.65 44.6 112.24 44.6 115.46C44.6 118.913 38.6967 129.157 26.89 146.19C26.1433 152.49 25.77 157.343 25.77 160.75C25.77 164.157 26.0967 166.63 26.75 168.17C22.7833 167.143 20.0767 165.79 18.63 164.11C17.1833 162.383 16.46 160.237 16.46 157.67C16.46 155.057 16.81 151.347 17.51 146.54C12.5167 128.713 8.2 117.07 4.56 111.61C6.47333 110.397 8.48 109.79 10.58 109.79C11.7 109.79 12.6333 109.907 13.38 110.14C14.1733 110.327 14.9433 110.793 15.69 111.54C16.4367 112.287 17.0667 113.243 17.58 114.41C18.14 115.577 18.7467 117.28 19.4 119.52C20.52 123.067 21.9433 129.133 23.67 137.72ZM44.9801 115.53C45.0734 113.71 45.2601 112.31 45.5401 111.33C50.5801 112.17 56.6234 112.59 63.6701 112.59C70.7167 112.59 78.0901 111.75 85.7901 110.07C84.9967 115.997 81.9867 119.24 76.7601 119.8C75.1267 120.033 72.6067 120.267 69.2001 120.5C69.1067 121.853 68.3367 127.78 66.8901 138.28C65.4434 148.733 64.7201 155.943 64.7201 159.91C64.7201 163.877 65.0467 166.63 65.7001 168.17C61.7334 167.143 59.0267 165.79 57.5801 164.11C56.1334 162.383 55.4101 160.26 55.4101 157.74C55.4101 155.22 55.9934 149.76 57.1601 141.36C58.3734 132.913 59.0967 126.123 59.3301 120.99C55.5501 121.177 51.8401 121.27 48.2001 121.27C46.0534 121.27 44.9801 119.357 44.9801 115.53ZM94.8179 139.05L101.748 139.33C105.901 139.33 108.888 138.373 110.708 136.46C110.895 137.44 110.988 138.84 110.988 140.66C110.988 142.433 110.545 144.043 109.658 145.49C108.771 146.89 107.348 147.59 105.388 147.59C100.021 147.59 96.0079 147.823 93.3479 148.29C90.7346 148.757 88.2379 149.737 85.8579 151.23C85.8112 150.577 85.7879 149.433 85.7879 147.8C85.7879 144.3 86.5346 141.967 88.0279 140.8C89.5679 139.633 91.8312 139.05 94.8179 139.05ZM156.101 151.65C157.827 152.023 158.691 152.887 158.691 154.24C156.917 157.46 154.747 160.073 152.181 162.08C149.614 164.087 147.187 165.417 144.901 166.07C142.614 166.723 140.257 167.05 137.831 167.05C132.324 167.05 127.704 164.95 123.971 160.75C120.237 156.55 118.371 150.437 118.371 142.41C118.371 133.45 120.681 125.82 125.301 119.52C127.587 116.487 130.504 114.083 134.051 112.31C137.644 110.49 141.774 109.58 146.441 109.58C151.154 109.58 154.724 110.84 157.151 113.36C159.624 115.833 160.861 118.773 160.861 122.18C160.861 125.54 159.927 128.293 158.061 130.44C156.194 132.54 153.767 133.59 150.781 133.59C149.754 133.59 148.564 133.403 147.211 133.03C148.191 131.817 149.054 130.09 149.801 127.85C150.547 125.61 150.921 123.487 150.921 121.48C150.921 119.473 150.454 117.84 149.521 116.58C148.587 115.32 147.117 114.69 145.111 114.69C142.031 114.69 139.254 116.113 136.781 118.96C134.307 121.807 132.464 125.307 131.251 129.46C130.037 133.613 129.431 137.907 129.431 142.34C129.431 148.313 130.597 152.84 132.931 155.92C135.264 159 138.251 160.54 141.891 160.54C144.177 160.54 146.557 159.77 149.031 158.23C151.504 156.69 153.861 154.497 156.101 151.65ZM188.547 130.93C185.514 130.93 182.807 132.983 180.427 137.09C178.047 141.15 176.857 145.21 176.857 149.27C176.857 157.763 179.051 162.01 183.437 162.01C186.564 162.01 189.107 159.98 191.067 155.92C193.027 151.813 194.007 147.217 194.007 142.13C194.007 134.663 192.187 130.93 188.547 130.93ZM182.597 124.63C183.111 124.63 183.577 124.793 183.997 125.12C184.464 125.4 184.697 125.703 184.697 126.03C179.984 129.297 177.161 133.847 176.227 139.68C177.207 137.067 178.397 134.803 179.797 132.89C181.244 130.977 182.737 129.53 184.277 128.55C187.217 126.73 190.087 125.82 192.887 125.82C195.687 125.82 198.067 127.197 200.027 129.95C201.987 132.703 202.967 136.39 202.967 141.01C202.967 146.19 201.917 150.95 199.817 155.29C197.484 160.19 194.171 163.573 189.877 165.44C187.451 166.513 184.791 167.05 181.897 167.05C177.837 167.05 174.291 165.487 171.257 162.36C168.271 159.187 166.777 154.66 166.777 148.78C166.777 142.853 168.224 137.65 171.117 133.17C174.011 128.643 177.837 125.797 182.597 124.63ZM237.84 125.61C240.594 125.61 242.554 126.473 243.72 128.2C244.934 129.88 245.54 132.19 245.54 135.13C245.54 138.023 245.074 142.107 244.14 147.38C243.254 152.653 242.81 156.503 242.81 158.93C242.81 161.31 243.114 163.06 243.72 164.18C244.327 165.253 245.354 166.187 246.8 166.98C246.194 167.027 245.33 167.05 244.21 167.05C240.29 167.05 237.49 166.443 235.81 165.23C234.177 164.017 233.36 161.893 233.36 158.86C233.36 157.133 233.827 153.773 234.76 148.78C235.694 143.74 236.16 139.983 236.16 137.51C236.16 134.43 235.227 132.89 233.36 132.89C232.287 132.89 231.074 133.52 229.72 134.78C228.367 136.04 227.06 137.767 225.8 139.96C224.54 142.107 223.49 144.883 222.65 148.29C221.81 151.697 221.39 155.103 221.39 158.51C221.39 161.87 221.53 164.367 221.81 166C220.317 166.093 219.337 166.14 218.87 166.14C216.21 166.14 214.297 165.673 213.13 164.74C211.964 163.807 211.38 162.267 211.38 160.12C211.38 159.187 211.87 155.593 212.85 149.34C213.83 143.087 214.32 138.117 214.32 134.43C214.32 130.697 213.924 127.267 213.13 124.14C216.537 125.213 218.917 126.753 220.27 128.76C221.624 130.72 222.3 132.983 222.3 135.55C222.3 138.07 222.02 141.01 221.46 144.37C223 139.143 225.427 134.71 228.74 131.07C232.054 127.43 235.087 125.61 237.84 125.61ZM281.659 125.61C284.412 125.61 286.372 126.473 287.539 128.2C288.752 129.88 289.359 132.19 289.359 135.13C289.359 138.023 288.892 142.107 287.959 147.38C287.072 152.653 286.629 156.503 286.629 158.93C286.629 161.31 286.932 163.06 287.539 164.18C288.145 165.253 289.172 166.187 290.619 166.98C290.012 167.027 289.149 167.05 288.029 167.05C284.109 167.05 281.309 166.443 279.629 165.23C277.995 164.017 277.179 161.893 277.179 158.86C277.179 157.133 277.645 153.773 278.579 148.78C279.512 143.74 279.979 139.983 279.979 137.51C279.979 134.43 279.045 132.89 277.179 132.89C276.105 132.89 274.892 133.52 273.539 134.78C272.185 136.04 270.879 137.767 269.619 139.96C268.359 142.107 267.309 144.883 266.469 148.29C265.629 151.697 265.209 155.103 265.209 158.51C265.209 161.87 265.349 164.367 265.629 166C264.135 166.093 263.155 166.14 262.689 166.14C260.029 166.14 258.115 165.673 256.949 164.74C255.782 163.807 255.199 162.267 255.199 160.12C255.199 159.187 255.689 155.593 256.669 149.34C257.649 143.087 258.139 138.117 258.139 134.43C258.139 130.697 257.742 127.267 256.949 124.14C260.355 125.213 262.735 126.753 264.089 128.76C265.442 130.72 266.119 132.983 266.119 135.55C266.119 138.07 265.839 141.01 265.279 144.37C266.819 139.143 269.245 134.71 272.559 131.07C275.872 127.43 278.905 125.61 281.659 125.61ZM314.487 148.78C312.247 148.78 310.054 148.523 307.907 148.01C307.861 148.477 307.837 149.2 307.837 150.18C307.837 154.053 308.561 156.97 310.007 158.93C311.454 160.89 313.181 161.87 315.187 161.87C317.194 161.87 319.107 161.263 320.927 160.05C322.747 158.837 324.334 157.157 325.687 155.01C327.367 155.383 328.207 156.247 328.207 157.6C324.101 163.9 318.804 167.05 312.317 167.05C308.397 167.05 304.967 165.557 302.027 162.57C299.087 159.537 297.617 155.337 297.617 149.97C297.617 145.957 298.387 142.153 299.927 138.56C301.467 134.92 303.917 131.863 307.277 129.39C310.637 126.87 314.347 125.61 318.407 125.61C322.514 125.61 325.524 126.543 327.437 128.41C329.351 130.277 330.307 132.727 330.307 135.76C330.307 140.147 328.767 143.413 325.687 145.56C322.654 147.707 318.921 148.78 314.487 148.78ZM317.427 129.95C315.047 129.95 313.041 131.42 311.407 134.36C309.774 137.3 308.701 140.87 308.187 145.07H309.237C313.297 145.07 316.284 144.02 318.197 141.92C320.157 139.82 321.137 137.3 321.137 134.36C321.137 133.147 320.811 132.12 320.157 131.28C319.551 130.393 318.641 129.95 317.427 129.95ZM346.797 150.18C346.797 157.973 349.084 161.87 353.657 161.87C355.43 161.87 357.227 161.263 359.047 160.05C360.867 158.837 362.454 157.157 363.807 155.01C365.487 155.383 366.327 156.247 366.327 157.6C364.367 161.007 361.964 163.433 359.117 164.88C356.27 166.327 353.424 167.05 350.577 167.05C346.75 167.05 343.484 165.65 340.777 162.85C338.117 160.003 336.787 155.897 336.787 150.53C336.787 143.67 338.677 137.813 342.457 132.96C346.237 128.06 351.347 125.61 357.787 125.61C361.38 125.61 364.087 126.497 365.907 128.27C367.727 129.997 368.637 132.073 368.637 134.5C368.637 136.88 367.89 138.957 366.397 140.73C364.95 142.503 363.084 143.39 360.797 143.39C359.677 143.39 358.557 143.157 357.437 142.69C358.137 141.897 358.79 140.66 359.397 138.98C360.004 137.253 360.307 135.667 360.307 134.22C360.307 131.373 359.07 129.95 356.597 129.95C353.704 129.95 351.347 132.073 349.527 136.32C347.707 140.567 346.797 145.187 346.797 150.18ZM390.752 133.1C390.518 134.78 390.028 137.697 389.282 141.85C387.695 150.67 386.902 157.203 386.902 161.45C386.902 165.697 387.228 168.543 387.882 169.99C384.288 169.057 381.815 167.633 380.462 165.72C379.108 163.76 378.432 161.007 378.432 157.46C378.432 154.333 378.922 150.063 379.902 144.65C380.882 139.19 381.512 135.503 381.792 133.59C379.365 134.01 376.775 134.827 374.022 136.04C373.928 135.013 373.882 134.243 373.882 133.73C373.882 131.257 374.628 129.577 376.122 128.69C377.615 127.757 379.762 127.267 382.562 127.22C382.888 123.72 383.052 121.2 383.052 119.66C383.052 118.12 383.028 116.837 382.982 115.81C382.982 114.783 382.982 114.013 382.982 113.5C386.062 113.827 388.302 114.76 389.702 116.3C391.102 117.793 391.802 119.94 391.802 122.74C391.802 123.86 391.685 125.423 391.452 127.43C395.372 127.337 398.242 126.567 400.062 125.12C400.155 126.053 400.202 126.753 400.202 127.22C400.202 129.46 399.805 131.023 399.012 131.91C398.218 132.75 396.888 133.17 395.022 133.17C393.155 133.17 391.732 133.147 390.752 133.1ZM418.734 116.79C418.734 118.237 418.314 120.523 417.474 123.65C415 133.217 413.764 140.637 413.764 145.91C413.764 148.243 413.95 149.853 414.324 150.74C411.104 149.947 408.887 148.757 407.674 147.17C406.46 145.537 405.854 143.32 405.854 140.52C405.854 137.673 406.437 133.333 407.604 127.5C408.77 121.667 409.354 117.513 409.354 115.04C409.354 112.52 409.284 110.887 409.144 110.14C411.617 110.14 413.834 110.7 415.794 111.82C417.754 112.893 418.734 114.55 418.734 116.79ZM403.894 156.48C405.527 156.013 407.184 155.78 408.864 155.78C412.317 155.78 414.044 157.227 414.044 160.12C414.044 161.053 413.624 163.037 412.784 166.07C411.15 166.537 409.494 166.77 407.814 166.77C404.36 166.77 402.634 165.323 402.634 162.43C402.634 161.497 403.054 159.513 403.894 156.48Z" fill="black"/>
</g>
<defs>
<filter id="filter0_d_5_6" x="0.559998" y="0.179996" width="422.174" height="177.81" filterUnits="userSpaceOnUse" color-interpolation-filters="sRGB">
<feFlood flood-opacity="0" result="BackgroundImageFix"/>
<feColorMatrix in="SourceAlpha" type="matrix" values="0 0 0 0 0 0 0 0 0 0 0 0 0 0 0 0 0 0 127 0" result="hardAlpha"/>
<feOffset dy="4"/>
<feGaussianBlur stdDeviation="2"/>
<feComposite in2="hardAlpha" operator="out"/>
<feColorMatrix type="matrix" values="0 0 0 0 0 0 0 0 0 0 0 0 0 0 0 0 0 0 0.25 0"/>
<feBlend mode="normal" in2="BackgroundImageFix" result="effect1_dropShadow_5_6"/>
<feBlend mode="normal" in="SourceGraphic" in2="effect1_dropShadow_5_6" result="shape"/>
</filter>
</defs>
</svg>
